<?xml version="1.0" encoding="UTF-8"?>
<!DOCTYPE svg PUBLIC "-//W3C//DTD SVG 1.1//EN" "http://www.w3.org/Graphics/SVG/1.1/DTD/svg11.dtd">
<svg xmlns="http://www.w3.org/2000/svg" version="1.1" width="2155px" height="2175px" style="shape-rendering:geometricPrecision; text-rendering:geometricPrecision; image-rendering:optimizeQuality; fill-rule:evenodd; clip-rule:evenodd" xmlns:xlink="http://www.w3.org/1999/xlink">
<g><path style="opacity:1" fill="#f9faf9" d="M 870.5,-0.5 C 870.833,-0.5 871.167,-0.5 871.5,-0.5C 872.867,1.14172 873.201,2.80839 872.5,4.5C 839.5,21.3333 806.5,38.1667 773.5,55C 737.868,75.3131 703.868,97.9798 671.5,123C 633.948,152.616 596.948,182.949 560.5,214C 550.484,223.342 541.984,233.842 535,245.5C 457.604,329.543 398.938,425.543 359,533.5C 348.267,565.031 337.934,596.698 328,628.5C 319.539,656.598 313.872,685.264 311,714.5C 301.65,780.183 296.483,846.183 295.5,912.5C 296.812,1213.91 413.146,1459.75 644.5,1650C 688.252,1684.38 733.585,1716.54 780.5,1746.5C 781.309,1748.07 781.643,1749.74 781.5,1751.5C 767.374,1749.94 754.041,1745.77 741.5,1739C 707.145,1722.5 675.145,1702.5 645.5,1679C 597.65,1639.83 550.983,1599.16 505.5,1557C 435.459,1492.03 378.626,1417.2 335,1332.5C 253.972,1176.7 218.972,1011.03 230,835.5C 245.794,590.135 341.294,382.301 516.5,212C 557.179,175.181 599.512,140.514 643.5,108C 692.399,74.044 744.732,46.044 800.5,24C 824.184,16.496 847.517,8.32937 870.5,-0.5 Z"/></g>
<g><path style="opacity:1" fill="#f9faf9" d="M 1242.5,59.5 C 1349.48,54.568 1453.48,69.7346 1554.5,105C 1584.15,115.824 1612.81,128.824 1640.5,144C 1636.79,144.439 1633.12,144.106 1629.5,143C 1530.6,110.434 1429.1,93.6006 1325,92.5C 1192.68,91.6205 1068.52,122.787 952.5,186C 762.732,289.433 621.232,438.6 528,633.5C 478.937,746.645 454.771,864.979 455.5,988.5C 456.11,1065.38 464.61,1141.38 481,1216.5C 481.282,1220.04 481.782,1223.54 482.5,1227C 482.167,1227.5 481.833,1228 481.5,1228.5C 476.279,1220.72 472.112,1212.39 469,1203.5C 430.4,1083.77 418.4,961.435 433,836.5C 461.252,598.109 566.752,402.276 749.5,249C 892.998,133.088 1057.33,69.9214 1242.5,59.5 Z"/></g>
<g><path style="opacity:1" fill="#f9faf9" d="M 2154.5,1009.5 C 2154.5,1009.83 2154.5,1010.17 2154.5,1010.5C 2146.07,1038.97 2137.91,1067.63 2130,1096.5C 2120.47,1119.09 2109.81,1141.09 2098,1162.5C 2092.08,1171.33 2086.42,1180.33 2081,1189.5C 2062.67,1210.5 2044.33,1231.5 2026,1252.5C 2006.44,1272.07 1986.27,1290.9 1965.5,1309C 1890.14,1368.34 1811.48,1423.01 1729.5,1473C 1657.91,1515.13 1582.58,1549.13 1503.5,1575C 1452.11,1591.35 1400.45,1606.68 1348.5,1621C 1333.5,1632.67 1318.5,1644.33 1303.5,1656C 1209.81,1724.01 1104.81,1758.67 988.5,1760C 1069.74,1742.3 1140.91,1705.8 1202,1650.5C 1202.5,1648.53 1202.66,1646.53 1202.5,1644.5C 1169.33,1644.95 1136.16,1645.61 1103,1646.5C 1019.17,1646.72 938.001,1632.22 859.5,1603C 803.623,1580.17 758.123,1544.33 723,1495.5C 705.554,1472.05 688.887,1448.05 673,1423.5C 671.813,1421.96 671.48,1420.29 672,1418.5C 673.512,1417.74 674.846,1416.74 676,1415.5C 685.984,1426.32 696.151,1436.98 706.5,1447.5C 788.931,1505.03 880.598,1535.53 981.5,1539C 1011.44,1541.93 1041.44,1542.93 1071.5,1542C 1118.74,1541.24 1165.74,1537.58 1212.5,1531C 1235.53,1526.46 1258.53,1521.79 1281.5,1517C 1295.42,1511.8 1309.42,1506.8 1323.5,1502C 1325.59,1501.21 1327.42,1500.04 1329,1498.5C 1376.73,1410.99 1410.39,1318.33 1430,1220.5C 1434.76,1195.67 1438.26,1170.67 1440.5,1145.5C 1440.17,1143.17 1439.83,1140.83 1439.5,1138.5C 1372.59,1162.08 1304.59,1181.92 1235.5,1198C 1123.8,1222.89 1011.47,1226.22 898.5,1208C 854.311,1200.83 812.644,1186.49 773.5,1165C 748.091,1150.28 725.591,1131.78 706,1109.5C 695.288,1097.12 684.955,1084.46 675,1071.5C 671.125,1066.25 667.625,1060.75 664.5,1055C 668.381,1055.43 672.047,1056.76 675.5,1059C 717.505,1089.69 764.172,1110.36 815.5,1121C 889.209,1136.4 963.542,1140.4 1038.5,1133C 1132.21,1124.66 1223.21,1104.33 1311.5,1072C 1354.41,1055.59 1397.07,1038.59 1439.5,1021C 1441.4,1018.03 1442.9,1014.86 1444,1011.5C 1447.69,891.314 1428.86,774.814 1387.5,662C 1387.17,661.5 1386.83,661 1386.5,660.5C 1334.79,675.177 1283.13,690.01 1231.5,705C 1120.61,735.444 1007.95,745.444 893.5,735C 844.168,729.562 799.168,712.895 758.5,685C 749.994,677.991 741.661,670.824 733.5,663.5C 740.476,662.336 747.476,662.169 754.5,663C 808.404,680.489 863.737,688.656 920.5,687.5C 984.996,687.76 1048.66,680.593 1111.5,666C 1188.67,650.385 1263.67,627.718 1336.5,598C 1342.5,594.667 1348.5,591.333 1354.5,588C 1355.52,586.951 1355.68,585.784 1355,584.5C 1342.16,551.821 1328.49,519.487 1314,487.5C 1275.51,414.515 1236.51,341.848 1197,269.5C 1194.44,262.718 1191.61,256.051 1188.5,249.5C 1189.58,247.457 1191.25,246.124 1193.5,245.5C 1246.62,285.78 1294.78,331.447 1338,382.5C 1378.73,432.31 1412.73,486.643 1440,545.5C 1440.56,546.022 1441.23,546.355 1442,546.5C 1518.48,510.044 1589.31,465.21 1654.5,412C 1682.76,388.411 1710.43,364.078 1737.5,339C 1773.8,309.518 1810.47,280.518 1847.5,252C 1851.21,251.175 1854.88,251.341 1858.5,252.5C 1852.04,277.367 1844.88,302.034 1837,326.5C 1821.89,362.944 1799.73,394.444 1770.5,421C 1681.32,501.463 1582.32,567.796 1473.5,620C 1472.27,620.779 1471.27,621.779 1470.5,623C 1472.65,626.49 1474.82,629.99 1477,633.5C 1510.17,719.855 1533.17,808.855 1546,900.5C 1547.86,916.814 1549.53,933.147 1551,949.5C 1552.62,952.943 1554.78,955.943 1557.5,958.5C 1606.56,927.305 1654.23,894.138 1700.5,859C 1726.38,838.791 1751.38,817.458 1775.5,795C 1812.25,757.244 1849.92,720.578 1888.5,685C 1923.6,657.232 1959.27,630.232 1995.5,604C 2000.07,602.627 2004.74,601.794 2009.5,601.5C 2002.09,654.549 1985.59,704.549 1960,751.5C 1952.06,763.702 1943.4,775.368 1934,786.5C 1887.08,835.757 1838.58,883.257 1788.5,929C 1717.02,988.085 1639.86,1038.92 1557,1081.5C 1551.78,1125.5 1546.44,1169.5 1541,1213.5C 1527.45,1298.64 1501.95,1379.97 1464.5,1457.5C 1464.71,1458.09 1465.04,1458.59 1465.5,1459C 1466.83,1459.17 1468.17,1459.33 1469.5,1459.5C 1572.58,1421.13 1669.91,1371.96 1761.5,1312C 1798.72,1286.78 1835.39,1260.78 1871.5,1234C 1890.2,1216.96 1909.2,1200.29 1928.5,1184C 1947.22,1165.94 1965.89,1147.94 1984.5,1130C 2030.65,1094.76 2076.99,1059.76 2123.5,1025C 2132.64,1018.35 2142.47,1012.85 2153,1008.5C 2153.38,1009.06 2153.88,1009.39 2154.5,1009.5 Z"/></g>
<g><path style="opacity:1" fill="#f9faf9" d="M 167.5,467.5 C 168.586,467.62 169.253,468.287 169.5,469.5C 159.773,500.515 149.94,531.515 140,562.5C 112.709,656.536 98.3757,752.536 97,850.5C 93.5039,989.19 115.837,1123.52 164,1253.5C 220.429,1395.48 299.762,1522.48 402,1634.5C 563.873,1802.36 760.373,1907.19 991.5,1949C 1057.39,1959.97 1123.73,1965.3 1190.5,1965C 1241.98,1960.65 1293.32,1954.99 1344.5,1948C 1372.27,1942.47 1399.94,1936.47 1427.5,1930C 1431.5,1929.33 1435.5,1929.33 1439.5,1930C 1441.27,1930.54 1441.6,1931.37 1440.5,1932.5C 1423.5,1941 1405.83,1947.83 1387.5,1953C 1228.57,2002.08 1067.24,2011.74 903.5,1982C 718.116,1947.46 555.116,1868.46 414.5,1745C 257.304,1605.61 150.471,1434.11 94,1230.5C 35.4891,1016.8 41.1558,804.801 111,594.5C 125.325,553.527 141.991,513.527 161,474.5C 162.694,471.642 164.861,469.309 167.5,467.5 Z"/></g>
<g><path style="opacity:1" fill="#f9faf9" d="M -0.5,1361.5 C 41.7919,1468.12 96.9586,1567.12 165,1658.5C 283.057,1810.89 430.557,1925.39 607.5,2002C 888.211,2123.42 1171.21,2128.76 1456.5,2018C 1703.21,1921.1 1892.04,1757.6 2023,1527.5C 2031.25,1512.66 2039.25,1497.66 2047,1482.5C 2049.62,1479.76 2051.79,1480.09 2053.5,1483.5C 2052.75,1490.16 2050.92,1496.49 2048,1502.5C 1995.73,1617.64 1928.06,1722.31 1845,1816.5C 1701.07,1974.58 1525.57,2082.41 1318.5,2140C 1242.57,2159.68 1165.57,2171.18 1087.5,2174.5C 1062.17,2174.5 1036.83,2174.5 1011.5,2174.5C 672.083,2155.39 397.916,2013.06 189,1747.5C 101.982,1632.13 38.8156,1504.46 -0.5,1364.5C -0.5,1363.5 -0.5,1362.5 -0.5,1361.5 Z"/></g>
</svg>
