<?xml version="1.0" encoding="UTF-8"?>
<!DOCTYPE svg PUBLIC "-//W3C//DTD SVG 1.1//EN" "http://www.w3.org/Graphics/SVG/1.1/DTD/svg11.dtd">
<svg xmlns="http://www.w3.org/2000/svg" version="1.1" width="2155px" height="2175px" style="shape-rendering:geometricPrecision; text-rendering:geometricPrecision; image-rendering:optimizeQuality; fill-rule:evenodd; clip-rule:evenodd" xmlns:xlink="http://www.w3.org/1999/xlink">
<g><path style="opacity:1" fill="#2ba2da" d="M 870.5,-0.5 C 871.167,-0.5 871.833,-0.5 872.5,-0.5C 873.052,1.33073 873.052,2.9974 872.5,4.5C 843.958,19.271 815.291,33.771 786.5,48C 744.445,71.3509 704.445,97.6842 666.5,127C 627.123,158.037 588.623,190.204 551,223.5C 545.755,230.324 540.755,237.324 536,244.5C 456.212,331.327 396.212,430.66 356,542.5C 341.712,584.03 329.045,626.03 318,668.5C 304.752,749.315 297.252,830.648 295.5,912.5C 297.219,1213.19 413.219,1458.69 643.5,1649C 686.901,1683.87 732.234,1716.04 779.5,1745.5C 780.782,1747.18 781.782,1749.01 782.5,1751C 774.971,1750.96 767.638,1749.63 760.5,1747C 720.475,1730.17 683.475,1708.5 649.5,1682C 580.997,1627.18 515.83,1568.35 454,1505.5C 378.574,1419.06 321.241,1321.39 282,1212.5C 239.935,1091.31 222.601,966.648 230,838.5C 244.647,593.437 339.147,385.604 513.5,215C 553.752,178.068 595.752,143.402 639.5,111C 688.17,76.9902 740.17,48.6569 795.5,26C 820.787,17.6287 845.787,8.7954 870.5,-0.5 Z"/></g>
<g><path style="opacity:1" fill="#181f2b" d="M 1242.5,59.5 C 1350.58,54.5345 1455.58,70.0345 1557.5,106C 1586.03,116.766 1613.7,129.433 1640.5,144C 1635.46,143.994 1630.46,143.328 1625.5,142C 1506.22,102.388 1383.88,86.7211 1258.5,95C 1150.66,103.291 1049.32,133.291 954.5,185C 766.334,287.484 625.167,434.984 531,627.5C 490.092,717.796 466.092,812.463 459,911.5C 451.471,1013.89 458.804,1115.23 481,1215.5C 481.752,1219.84 482.086,1224.17 482,1228.5C 476.695,1221.56 472.695,1213.89 470,1205.5C 430.002,1082.85 418.002,957.52 434,829.5C 464.127,591.681 570.961,396.848 754.5,245C 897.058,131.605 1059.72,69.7715 1242.5,59.5 Z"/></g>
<g><path style="opacity:1" fill="#191f2b" d="M 1441.5,547.5 C 1432.38,554.568 1422.38,560.402 1411.5,565C 1392.94,572.019 1374.6,579.519 1356.5,587.5C 1344.16,556.659 1331.33,525.993 1318,495.5C 1277.76,418.024 1236.76,341.024 1195,264.5C 1192.83,259.316 1190.66,254.15 1188.5,249C 1190.17,247.833 1191.83,246.667 1193.5,245.5C 1301.54,325.524 1384.21,426.191 1441.5,547.5 Z"/></g>
<g><path style="opacity:1" fill="#2aa1d9" d="M 1470.5,622.5 C 1441.42,632.21 1413.75,644.877 1387.5,660.5C 1335.49,675.225 1283.49,690.059 1231.5,705C 1123.62,734.555 1013.95,744.888 902.5,736C 847.504,731.453 797.838,713.12 753.5,681C 746.456,675.468 739.789,669.468 733.5,663C 740.833,662.333 748.167,662.333 755.5,663C 795.339,676.807 836.339,684.473 878.5,686C 941.266,689.672 1003.6,686.005 1065.5,675C 1157.99,659.462 1247.66,634.129 1334.5,599C 1341.74,594.907 1349.08,591.074 1356.5,587.5C 1374.6,579.519 1392.94,572.019 1411.5,565C 1422.38,560.402 1432.38,554.568 1441.5,547.5C 1468.3,533.601 1494.96,519.434 1521.5,505C 1599.11,457.995 1670.78,402.995 1736.5,340C 1773.21,310.286 1810.21,280.953 1847.5,252C 1851.15,251.501 1854.82,251.335 1858.5,251.5C 1853.29,272.99 1847.46,294.323 1841,315.5C 1832.15,341.865 1819.15,365.865 1802,387.5C 1791.23,400.271 1779.73,412.438 1767.5,424C 1706.28,478.437 1640.61,526.77 1570.5,569C 1537.26,587.117 1503.93,604.95 1470.5,622.5 Z"/></g>
<g><path style="opacity:1" fill="#181f2b" d="M 167.5,467.5 C 168.649,467.791 169.316,468.624 169.5,470C 168.794,473.862 167.961,477.695 167,481.5C 104.003,652.803 83.3363,829.136 105,1010.5C 121.461,1148.88 164.128,1278.55 233,1399.5C 296.304,1515.47 377.47,1617.64 476.5,1706C 682.018,1879.09 920.018,1965.42 1190.5,1965C 1241.98,1960.65 1293.32,1954.99 1344.5,1948C 1372.27,1942.47 1399.94,1936.47 1427.5,1930C 1431.5,1929.33 1435.5,1929.33 1439.5,1930C 1441.27,1930.54 1441.6,1931.37 1440.5,1932.5C 1410.12,1946.01 1378.79,1956.85 1346.5,1965C 1142.26,2017 940.593,2008.34 741.5,1939C 625.506,1896.37 520.839,1835.37 427.5,1756C 261.257,1613.15 149.424,1435.32 92,1222.5C 35.1352,1008.3 42.4686,796.305 114,586.5C 127.853,547.125 144.187,508.791 163,471.5C 164.667,470.267 166.167,468.933 167.5,467.5 Z"/></g>
<g><path style="opacity:1" fill="#2aa1d9" d="M 1557.5,1081.5 C 1555.52,1076.13 1554.36,1070.46 1554,1064.5C 1552.18,1033.19 1551.51,1001.85 1552,970.5C 1553.74,966.428 1555.58,962.428 1557.5,958.5C 1620.41,919.427 1680.41,876.261 1737.5,829C 1749.5,818.333 1761.5,807.667 1773.5,797C 1798.83,773 1823.5,748.333 1847.5,723C 1862.83,709 1878.17,695 1893.5,681C 1927.65,653.844 1962.65,627.844 1998.5,603C 2002.15,602.281 2005.81,601.781 2009.5,601.5C 2002.58,653.433 1986.74,702.433 1962,748.5C 1949.9,767.605 1935.9,785.272 1920,801.5C 1879.47,843.033 1837.97,883.533 1795.5,923C 1722.5,985.024 1643.17,1037.86 1557.5,1081.5 Z"/></g>
<g><path style="opacity:1" fill="#191f2b" d="M 1470.5,622.5 C 1477.09,633.415 1482.26,645.081 1486,657.5C 1513.51,733.524 1533.17,811.524 1545,891.5C 1547.46,910.451 1549.46,929.451 1551,948.5C 1552.43,952.377 1554.6,955.711 1557.5,958.5C 1555.58,962.428 1553.74,966.428 1552,970.5C 1551.51,1001.85 1552.18,1033.19 1554,1064.5C 1554.36,1070.46 1555.52,1076.13 1557.5,1081.5C 1555.35,1093.07 1553.51,1104.74 1552,1116.5C 1545.36,1236.39 1516.19,1350.39 1464.5,1458.5C 1439.64,1467.95 1414.64,1477.12 1389.5,1486C 1369.34,1491.66 1349.01,1496.5 1328.5,1500.5C 1365.32,1431.7 1394.32,1359.7 1415.5,1284.5C 1428.74,1236.65 1437.07,1187.98 1440.5,1138.5C 1444.41,1099.41 1444.41,1060.41 1440.5,1021.5C 1441.99,1017.18 1443.49,1012.84 1445,1008.5C 1447.56,888.839 1428.39,772.839 1387.5,660.5C 1413.75,644.877 1441.42,632.21 1470.5,622.5 Z"/></g>
<g><path style="opacity:1" fill="#2aa1d9" d="M 2154.5,1008.5 C 2154.5,1009.5 2154.5,1010.5 2154.5,1011.5C 2146.41,1038.97 2138.57,1066.63 2131,1094.5C 2117.8,1127.57 2101.47,1158.9 2082,1188.5C 2064.33,1208.83 2046.67,1229.17 2029,1249.5C 1999.62,1279.56 1968.45,1307.39 1935.5,1333C 1882.39,1372.72 1828.06,1410.72 1772.5,1447C 1695.6,1496.28 1613.93,1536.28 1527.5,1567C 1466.61,1586.63 1405.61,1605.46 1344.5,1623.5C 1331.34,1623.51 1318.01,1624.34 1304.5,1626C 1270.78,1631.95 1237.11,1638.12 1203.5,1644.5C 1170,1644.93 1136.5,1645.6 1103,1646.5C 1019.18,1646.72 938.012,1632.22 859.5,1603C 810.653,1583.13 769.486,1552.96 736,1512.5C 713.5,1483 692.166,1452.66 672,1421.5C 671.333,1420.5 671.333,1419.5 672,1418.5C 673.512,1417.74 674.846,1416.74 676,1415.5C 686.845,1426.04 697.345,1436.88 707.5,1448C 789.609,1505.26 880.942,1535.59 981.5,1539C 1011.77,1541.96 1042.1,1542.96 1072.5,1542C 1119.74,1541.18 1166.74,1537.51 1213.5,1531C 1236.17,1526.33 1258.83,1521.67 1281.5,1517C 1297.08,1511.2 1312.74,1505.7 1328.5,1500.5C 1349.01,1496.5 1369.34,1491.66 1389.5,1486C 1414.64,1477.12 1439.64,1467.95 1464.5,1458.5C 1468.51,1459.84 1472.51,1459.67 1476.5,1458C 1592.13,1413.03 1700.47,1355.36 1801.5,1285C 1826.5,1266.67 1851.5,1248.33 1876.5,1230C 1897.2,1210.96 1918.2,1192.3 1939.5,1174C 1954.52,1159.97 1969.19,1145.64 1983.5,1131C 2032.63,1092.94 2082.3,1055.6 2132.5,1019C 2139.73,1015.22 2147.07,1011.72 2154.5,1008.5 Z"/></g>
<g><path style="opacity:1" fill="#2aa1d9" d="M 1440.5,1021.5 C 1444.41,1060.41 1444.41,1099.41 1440.5,1138.5C 1391.85,1154.77 1342.85,1169.94 1293.5,1184C 1223.72,1203.13 1152.72,1214.8 1080.5,1219C 1019.45,1221.45 958.788,1217.79 898.5,1208C 854.48,1200.44 812.814,1186.1 773.5,1165C 749.188,1150.4 727.354,1132.56 708,1111.5C 692.352,1093.52 677.852,1074.69 664.5,1055C 669.055,1055.76 673.388,1057.43 677.5,1060C 717.842,1089.24 762.508,1109.24 811.5,1120C 886.472,1136.23 962.139,1140.56 1038.5,1133C 1152.11,1122.6 1261.45,1095.26 1366.5,1051C 1386.95,1042.61 1407.28,1033.94 1427.5,1025C 1431.72,1023.32 1436.05,1022.15 1440.5,1021.5 Z"/></g>
<g><path style="opacity:1" fill="#2ba2da" d="M -0.5,1361.5 C 139.732,1713.22 391.065,1944.39 753.5,2055C 962.034,2114.09 1169.7,2111.09 1376.5,2046C 1678.78,1950.69 1902.61,1762.52 2048,1481.5C 2050.83,1480 2052.66,1480.83 2053.5,1484C 2052.92,1488.98 2051.75,1493.81 2050,1498.5C 1986.33,1641.12 1898.83,1766.96 1787.5,1876C 1654.8,2001.56 1499.8,2089.23 1322.5,2139C 1245.62,2159.2 1167.62,2171.04 1088.5,2174.5C 1062.83,2174.5 1037.17,2174.5 1011.5,2174.5C 672.601,2155.48 398.767,2013.48 190,1748.5C 102.404,1632.97 38.9042,1504.97 -0.5,1364.5C -0.5,1363.5 -0.5,1362.5 -0.5,1361.5 Z"/></g>
<g><path style="opacity:1" fill="#191f2b" d="M 1344.5,1623.5 C 1343.2,1624.49 1341.87,1625.49 1340.5,1626.5C 1338.97,1626.43 1337.97,1627.09 1337.5,1628.5C 1237.85,1714.13 1121.85,1757.96 989.5,1760C 1070.81,1741.93 1141.98,1705.1 1203,1649.5C 1203.49,1647.87 1203.66,1646.2 1203.5,1644.5C 1237.11,1638.12 1270.78,1631.95 1304.5,1626C 1318.01,1624.34 1331.34,1623.51 1344.5,1623.5 Z"/></g>
<g><path style="opacity:1" fill="#235e7f" d="M 1340.5,1626.5 C 1340.03,1627.91 1339.03,1628.57 1337.5,1628.5C 1337.97,1627.09 1338.97,1626.43 1340.5,1626.5 Z"/></g>
</svg>
